PathFileType	4	(X/Y/Z)	C:\Users\Basilio\Documents\Thesis Gigler\squatting_fais\c3dfiles\058\SJ_pre1\markers_experimental.trc
DataRate	CameraRate	NumFrames	NumMarkers	Units	OrigDataRate	OrigDataStartFrame	OrigNumFrames
200.000000	200.000000	4	61	mm	200.000000	0	1573
Frame#	Time	FHD			LBHD			RBHD			C7			T10			CLAV			LSHO			LUUPA			LMUPA			LDUPA			LLEP			LMEP			LRAD			LUL			LRFIN			RSHO			RUPA1			RMUPA			RDUPA			RLEP			RMEP			RRAD			RUL			RUFIN			LASI			RASI			USACR			LSACR			RSACR			LTHI1			LTHI2			LTHI3			LTHI4			LLFC			LMFC			LTIB1			LTIB2			LTIB3			LTIB4			LLMAL			LMMAL			LHEE			LMT1			LMT2			LMT5			RTHI			RTHI2			RTHI3			RTHI4			RLFC			RMFC			RTIB1			RTIB2			RTIB3			RTIB4			RLMAL			RMMAL			RHEE			RMT1			RMT2			RMT5			
		X1	Y1	Z1	X2	Y2	Z2	X3	Y3	Z3	X4	Y4	Z4	X5	Y5	Z5	X6	Y6	Z6	X7	Y7	Z7	X8	Y8	Z8	X9	Y9	Z9	X10	Y10	Z10	X11	Y11	Z11	X12	Y12	Z12	X13	Y13	Z13	X14	Y14	Z14	X15	Y15	Z15	X16	Y16	Z16	X17	Y17	Z17	X18	Y18	Z18	X19	Y19	Z19	X20	Y20	Z20	X21	Y21	Z21	X22	Y22	Z22	X23	Y23	Z23	X24	Y24	Z24	X25	Y25	Z25	X26	Y26	Z26	X27	Y27	Z27	X28	Y28	Z28	X29	Y29	Z29	X30	Y30	Z30	X31	Y31	Z31	X32	Y32	Z32	X33	Y33	Z33	X34	Y34	Z34	X35	Y35	Z35	X36	Y36	Z36	X37	Y37	Z37	X38	Y38	Z38	X39	Y39	Z39	X40	Y40	Z40	X41	Y41	Z41	X42	Y42	Z42	X43	Y43	Z43	X44	Y44	Z44	X45	Y45	Z45	X46	Y46	Z46	X47	Y47	Z47	X48	Y48	Z48	X49	Y49	Z49	X50	Y50	Z50	X51	Y51	Z51	X52	Y52	Z52	X53	Y53	Z53	X54	Y54	Z54	X55	Y55	Z55	X56	Y56	Z56	X57	Y57	Z57	X58	Y58	Z58	X59	Y59	Z59	X60	Y60	Z60	X61	Y61	Z61	

1	0	-30.82141113281251	1608.166870117188	-701.7835693359376	-155.2584228515625	1710.008666992188	-783.569763183594	-2.374030828475953	1614.20263671875	-843.5362548828127	-294.7184753417969	1581.1201171875	-834.3464355468752	-402.010467529297	1267.985595703125	-857.2954101562502	-175.4423217773438	1460.8330078125	-813.8626098632815	-151.5158081054688	1539.913696289063	-977.957458496094	-300.3181457519532	1476.224365234375	-1154.258422851563	-277.6939697265626	1430.429565429688	-1165.609741210938	-332.6363220214844	1428.058715820313	-1194.86865234375	-377.2647705078126	1365.554443359375	-1232.535400390625	-435.6635131835939	1370.664672851563	-1183.748291015625	-390.0361633300782	1149.50390625	-1062.18212890625	-368.6105651855469	1101.481323242188	-1124.6181640625	-316.6423034667969	1150.51513671875	-1053.49853515625	-217.4771881103516	1531.827880859375	-644.6043701171876	-396.157440185547	1433.511962890625	-523.6279907226564	-374.9079284667969	1388.225219726563	-521.5511474609376	-427.6688537597657	1375.5341796875	-497.5892639160157	-473.2865600585939	1323.012939453125	-479.3340454101564	-524.1427001953126	1314.728149414063	-552.8208618164064	-378.7659301757813	1137.69482421875	-649.8535156250001	-370.5285644531251	1086.953491210938	-588.0055541992189	-306.1054382324219	1109.741455078125	-664.9919433593751	-243.4888000488282	1036.924438476563	-982.8627929687502	-247.8228759765626	1030.7509765625	-748.2180175781251	-426.0403747558595	1143.903442382813	-854.4773559570315	-436.5589904785157	1113.698486328125	-883.020202636719	-436.5450439453126	1112.575439453125	-825.7073974609377	-293.8451232910157	778.6765136718752	-1097.189453125	-262.0832519531251	700.3743896484376	-1105.835693359375	-217.4987030029297	699.0817871093751	-1081.514526367188	-289.8690795898438	646.8726806640626	-1104.946533203125	-286.6707153320313	546.7066650390626	-1111.015014648438	-258.6963500976563	522.1217041015626	-990.8992309570315	-243.713119506836	403.3739013671876	-1098.3359375	-306.3387451171876	382.6150512695313	-1153.822631835938	-267.2917785644532	367.7993774414063	-1136.407348632813	-278.1212768554688	283.0574645996094	-1122.296264648438	-364.4815368652344	96.05593872070315	-1156.528930664063	-334.7043457031251	103.6889419555664	-1069.144897460938	-425.4477844238282	50.99236297607423	-1102.992065429688	-199.268783569336	70.76746368408205	-1107.927124023438	-201.0520019531251	71.66883850097658	-1154.744873046875	-252.8468627929688	41.53495025634766	-1201.62939453125	-352.0011596679688	844.9191894531252	-663.7206420898439	-311.5319519042969	792.9480590820315	-652.1641845703126	-278.1083068847657	794.5894165039065	-654.2814941406251	-332.5960083007813	711.9356079101564	-663.7661132812501	-312.4931335449219	536.5443725585939	-656.8395385742189	-283.9482421875001	507.0283203125001	-786.0415649414065	-272.8628540039063	321.7844543457032	-714.2592163085939	-309.1427612304688	255.6663513183594	-633.4169921875001	-279.1185607910157	243.7529602050782	-668.8226928710939	-292.7233581542969	194.1439514160157	-695.0988769531251	-352.1231994628907	92.74021148681642	-635.7006835937501	-326.5463867187501	104.5717697143555	-727.7424316406251	-416.4501342773439	47.89448165893555	-689.0850219726564	-195.9140319824219	56.94927978515626	-699.4130249023439	-192.9771575927735	61.21322250366212	-648.4487304687501	-235.0367736816407	26.50623893737794	-592.3701171875001	
2	0.005	-30.58884811401368	1607.728515625	-703.7291870117189	-155.3275604248047	1710.152709960938	-784.9160156250002	-2.266920328140259	1614.342651367188	-845.1336669921877	-294.8788757324219	1581.1103515625	-834.9004516601565	-402.0134277343751	1267.97900390625	-857.5090332031252	-175.5	1460.861938476563	-814.6983032226565	-152.1160736083985	1539.761108398438	-979.0018310546877	-301.1871337890626	1475.995239257813	-1154.708862304688	-278.8977355957032	1430.065673828125	-1166.22265625	-333.7572021484376	1427.808715820313	-1195.2958984375	-378.3456115722657	1365.338500976563	-1232.835327148438	-436.7102966308595	1370.3974609375	-1183.886474609375	-390.5632629394532	1149.309936523438	-1062.287963867188	-369.1613769531251	1101.308837890625	-1124.703491210938	-317.1342468261719	1150.36474609375	-1053.730346679688	-217.1148223876954	1531.835083007813	-645.4096069335939	-395.9267883300782	1433.686157226563	-523.9936523437501	-374.5160217285157	1388.60693359375	-521.8740844726564	-427.3833618164064	1375.701049804688	-497.8262023925782	-472.8142395019532	1323.362182617188	-479.4129028320314	-523.7518920898439	1314.938354492188	-552.8095703125001	-378.6451416015626	1137.783203125	-650.0184936523439	-370.2142028808594	1087.02734375	-588.1365356445314	-306.0172119140626	1109.737060546875	-665.2514038085939	-243.7494659423829	1036.820556640625	-983.153015136719	-247.7209930419922	1030.91552734375	-748.4425048828126	-426.1786499023439	1143.836181640625	-854.5648193359377	-436.677703857422	1113.629638671875	-883.0647583007815	-436.6520996093751	1112.556640625	-825.7290039062502	-294.3154907226563	778.5864868164065	-1097.349609375	-262.6225585937501	700.3321533203126	-1106.144897460938	-218.0364227294922	698.8006591796876	-1081.906982421875	-290.5203552246094	646.6820678710939	-1105.124389648438	-287.2934570312501	546.6424560546876	-1111.2060546875	-258.8925476074219	522.0344238281251	-991.1881103515627	-243.9406433105469	403.2976989746095	-1098.726684570313	-306.7615356445313	382.5072937011719	-1153.978271484375	-267.7891845703126	367.7060546875001	-1136.672607421875	-279.0027465820313	282.7918701171876	-1122.578369140625	-364.3758544921876	95.90152740478517	-1156.460693359375	-334.5016174316407	103.4994201660157	-1069.11669921875	-425.2818603515626	50.71134567260744	-1102.785888671875	-199.1593170166016	70.74707794189455	-1108.204956054688	-201.063705444336	71.6758270263672	-1155.05224609375	-252.8170776367188	41.52538299560548	-1201.87451171875	-352.0173034667969	844.9868774414065	-663.7960205078126	-311.5188903808594	792.948181152344	-652.3825683593751	-278.1347961425782	794.5749511718752	-654.4476928710939	-332.6463012695313	711.9446411132814	-663.8494262695314	-312.6484069824219	536.6627197265626	-656.9274291992189	-284.1999816894532	507.0624389648439	-786.1516723632815	-272.9443359375001	321.7478942871094	-714.3248291015626	-309.3443908691407	255.456039428711	-633.3672485351564	-278.3684997558594	243.1598510742188	-667.9967041015626	-292.7373962402344	194.1722717285157	-695.1644897460939	-352.1902770996094	92.73838806152345	-635.6912841796876	-326.5259399414063	104.5592422485352	-727.7412109375001	-416.4923706054689	47.9035987854004	-689.0659790039064	-195.8648223876954	56.95433807373048	-699.3999023437501	-193.0136108398438	61.18077850341798	-648.4655761718751	-235.0288085937501	26.5271167755127	-592.3701782226564	
3	0.01	-30.1750602722168	1607.830810546875	-705.3663940429689	-155.5893096923828	1709.330444335938	-785.6872558593752	-2.615564107894898	1614.438720703125	-846.580261230469	-294.8556213378907	1581.06396484375	-835.8015747070315	-401.913543701172	1267.9169921875	-857.9245605468752	-175.5863494873047	1460.854736328125	-815.618591308594	-152.5516815185547	1539.643676757813	-979.997253417969	-302.0444030761719	1475.74755859375	-1155.4248046875	-280.0207214355469	1429.710693359375	-1166.766723632813	-334.7409667968751	1427.53173828125	-1195.789184570313	-379.6641845703126	1364.9794921875	-1233.139892578125	-437.7233276367189	1370.084716796875	-1184.070434570313	-391.1082763671876	1149.0791015625	-1062.41748046875	-369.9424743652344	1101.08349609375	-1124.9326171875	-317.4974670410157	1150.268920898438	-1053.98046875	-216.850082397461	1531.859497070313	-646.2696533203126	-395.5606689453126	1433.935913085938	-524.3909912109376	-374.1361389160157	1388.8232421875	-522.2154541015626	-426.8558349609376	1376.022094726563	-498.1754455566407	-472.2366027832032	1323.625244140625	-479.6278686523439	-523.3242187500001	1315.123901367188	-552.8532714843751	-378.5335693359376	1137.89013671875	-650.3341064453126	-369.9945983886719	1087.150024414063	-588.3272705078126	-305.9508666992188	1109.769409179688	-665.5473022460939	-244.0560455322266	1036.733276367188	-983.4627075195315	-247.6580505371094	1031.016967773438	-748.6987304687501	-426.2715148925782	1143.795288085938	-854.6890258789065	-436.8489990234376	1113.588134765625	-883.1806640625002	-436.7420349121095	1112.525390625	-825.846862792969	-294.8418884277344	778.5769042968752	-1097.617797851563	-263.1474609375001	700.1623535156251	-1106.54345703125	-218.3613891601563	698.7042236328126	-1082.419311523438	-291.0956115722657	646.5869750976564	-1105.322021484375	-288.0773925781251	546.4199829101564	-1111.457275390625	-259.2239074707032	521.9058837890626	-991.5578613281252	-244.4258728027344	403.3443603515626	-1099.118286132813	-307.3312377929688	382.3911437988282	-1154.1416015625	-268.2624206542969	367.6129455566407	-1137.04345703125	-279.4945678710938	282.4253845214844	-1122.868041992188	-364.2561950683594	95.72085571289064	-1156.381713867188	-334.1528015136719	103.1844482421875	-1069.150512695313	-426.0422363281251	51.30835342407228	-1102.2314453125	-198.8900146484376	70.5366668701172	-1108.623901367188	-201.0293579101563	71.44066619873048	-1155.393188476563	-252.9071960449219	41.42546844482423	-1202.220703125	-351.9976806640626	845.0480957031252	-663.9170532226564	-311.4951171875001	793.059265136719	-652.5460815429689	-278.1057434082032	794.6036376953127	-654.6262207031251	-332.6850280761719	712.0312500000001	-663.9459838867189	-312.8411254882813	536.7489013671876	-656.9764404296876	-284.3259887695313	507.0467529296876	-786.2832031250002	-273.0278930664063	321.7902221679688	-714.3698120117189	-309.3918151855469	255.4954833984376	-633.4035034179689	-278.4737548828126	243.0967254638672	-667.9979248046876	-292.7539367675782	194.1658782958985	-695.1889648437501	-352.1180419921876	92.69606018066408	-635.6791992187501	-326.4477844238282	104.5809020996094	-727.6842041015626	-416.4737243652345	47.9028434753418	-689.0788574218751	-195.8594512939454	56.9722366333008	-699.3784790039064	-192.994369506836	61.20677566528322	-648.4714355468751	-235.0367279052735	26.50628852844239	-592.3701171875001	
4	0.015	-30.26863288879395	1606.916870117188	-707.3012084960939	-155.2786560058594	1710.356201171875	-787.2529296875002	-2.704115152359009	1614.476196289063	-848.2378540039065	-294.9831848144532	1581.039184570313	-836.490417480469	-401.8707275390626	1267.8876953125	-858.385925292969	-175.6403198242188	1460.889038085938	-816.584655761719	-152.8579559326172	1539.491577148438	-981.1462402343752	-302.9833984375001	1475.428955078125	-1156.218994140625	-281.0124511718751	1429.326416015625	-1167.423217773438	-335.7647705078126	1427.23095703125	-1196.344970703125	-380.8334960937501	1364.611572265625	-1233.51708984375	-438.6656188964845	1369.799072265625	-1184.224487304688	-391.5445861816407	1148.814453125	-1062.601928710938	-370.6156921386719	1100.79296875	-1125.193725585938	-318.0001220703126	1150.123413085938	-1054.39208984375	-216.6420898437501	1532.179077148438	-647.2495727539064	-395.2658081054689	1434.276733398438	-524.8182983398439	-373.7590942382813	1389.213500976563	-522.5812377929689	-426.2761535644532	1376.353515625	-498.5711975097657	-471.5997314453126	1323.92431640625	-479.8669433593751	-522.9364624023439	1315.387573242188	-552.9844360351564	-378.4056396484376	1137.965576171875	-650.5403442382814	-369.8381958007813	1087.33642578125	-588.5101318359376	-305.9377746582032	1109.81787109375	-665.8420410156251	-244.3042449951172	1036.609985351563	-983.7813720703127	-247.7430725097657	1031.106567382813	-749.0834350585939	-426.451873779297	1143.714965820313	-854.9885253906252	-437.003631591797	1113.484741210938	-883.4061279296877	-436.8223571777345	1112.471313476563	-825.9567871093752	-295.4986877441407	778.4473266601565	-1098.0947265625	-263.7301635742188	700.1117553710939	-1106.85595703125	-218.7124786376954	698.5711059570314	-1082.949462890625	-291.9948425292969	646.4841308593751	-1105.635498046875	-288.7867431640626	546.2399291992189	-1111.71044921875	-259.5917053222657	521.7445678710939	-991.7917480468752	-245.0802001953126	403.1307983398439	-1099.431030273438	-307.8513183593751	382.1303710937501	-1154.346313476563	-268.8275146484376	367.4601745605469	-1137.35107421875	-279.5866088867188	282.3231201171876	-1123.15380859375	-364.1642456054688	95.46614837646486	-1156.304443359375	-333.7878417968751	102.8205871582032	-1069.192993164063	-424.8952026367189	50.44571685791017	-1102.36767578125	-198.4566040039063	70.13028717041017	-1109.410522460938	-199.9681854248047	70.22859954833986	-1156.306274414063	-253.0896759033204	41.1611557006836	-1202.656860351563	-351.9928894042969	845.1046142578127	-664.0264892578126	-311.4849243164063	793.1132812500002	-652.7261962890626	-278.1399230957032	794.6164550781252	-654.8591308593751	-332.7136535644532	712.0841064453126	-664.0541381835939	-312.9264831542969	536.7703857421876	-657.0709228515626	-284.4963684082032	507.0249023437501	-786.365661621094	-273.1147460937501	321.8302307128907	-714.4406738281251	-309.5171508789063	255.5099639892579	-633.4544677734376	-278.4579467773438	243.1141967773438	-668.0077514648439	-292.7710266113282	194.2216949462891	-695.2226562500001	-352.1212768554688	92.72313690185548	-635.6688232421876	-326.5109252929688	104.5828018188477	-727.6524658203126	-416.4860229492189	47.8858985900879	-689.0297851562501	-195.8643188476563	56.95429611206056	-699.3997192382814	-192.9970397949219	61.19155883789064	-648.4400024414064	-235.036849975586	26.50617027282716	-592.3701171875001	
